# xmcd
#
# Track frame offsets:
#	150
#	17250
#	35457
#	51960
#	68171
#	84821
#	100121
#	117060
#	137678
#	153503
#	170603
#	188810
#	205313
#	221524
#	238174
#	253474
#	270413
#	291031
#
# Disc length: 4093 seconds
#
# Revision: 1
# Processed by: cddbd v1.5.2PL0 Copyright (c) Steve Scherf et al.
# Submitted via: audiograbber 1.83.01
#
DISCID=fa0ffb12
DTITLE=Pop Hits Monthly Nashville - PHM0211
DYEAR=2002
DGENRE=Karaoke
TTITLE0=Faith Hill - Cry
TTITLE1=Brad Paisley - I Wish You'd Stay
TTITLE2=Lonestar - Unusually Unusual
TTITLE3=George Strait - Stars On The Water
TTITLE4=Aaron Lines - You Can't Hide Beautiful
TTITLE5=Terri Clark - I Just Wanna Be Mad
TTITLE6=Jennifer Hanson - Beautiful Goodbye
TTITLE7=Tammy Cochran - Life Happened
TTITLE8=Brooks And Dunn - Every River
TTITLE9=Faith Hill - Cry (Vocal)
TTITLE10=Brad Paisley  - I Wish You'd Stay (Vocal)
TTITLE11=Lonestar - Unusually Unusual (Vocal)
TTITLE12=George Strait - Stars On The Water (Vocal)
TTITLE13=Aaron Lines - You Can't Hide Beautiful (Vocal)
TTITLE14=Terri Clark  - I Just Wanna Be Mad (Vocal)
TTITLE15=Jennifer Hanson - Beautiful Goodbye (Vocal)
TTITLE16=Tammy Cochran - Life Happened (Vocal)
TTITLE17=Brooks And Dunn  - Every River (Vocal)
EXTD=fixed vocal listings
EXTT0=
EXTT1=
EXTT2=
EXTT3=
EXTT4=
EXTT5=
EXTT6=
EXTT7=
EXTT8=
EXTT9=
EXTT10=
EXTT11=
EXTT12=
EXTT13=
EXTT14=
EXTT15=
EXTT16=
EXTT17=
PLAYORDER=
